<?xml version="1.0" encoding="UTF-8"?>
<svg version="1.1" xmlns="http://www.w3.org/2000/svg" width="512" height="512">
<path d="M0 0 C0.94720917 0.00215515 1.89441833 0.0043103 2.87033081 0.00653076 C17.06687392 0.05830965 30.91832023 0.4978987 44.875 3.3125 C45.89190918 3.51117676 46.90881836 3.70985352 47.95654297 3.91455078 C86.21466848 11.56846919 122.13272366 27.11999436 152.875 51.3125 C154.3290625 52.44945313 154.3290625 52.44945313 155.8125 53.609375 C170.49142618 65.36919654 184.32792898 78.44993334 195.875 93.3125 C196.32456055 93.88033203 196.77412109 94.44816406 197.23730469 95.03320312 C209.49213137 110.54879276 219.53342373 127.39894074 227.875 145.3125 C228.38289063 146.38757813 228.89078125 147.46265625 229.4140625 148.5703125 C236.50757793 164.31260611 241.59316339 180.83435288 245.25 197.6875 C245.60771484 199.32356201 245.60771484 199.32356201 245.97265625 200.99267578 C249.3261591 217.27315674 250.25608255 233.41467239 250.1875 250 C250.18476578 251.37955872 250.18476578 251.37955872 250.18197632 252.7869873 C250.13525211 266.81886161 249.60970511 280.51091022 246.875 294.3125 C246.70339355 295.20662598 246.53178711 296.10075195 246.35498047 297.02197266 C237.30645131 343.04089976 216.49610515 385.38964509 184.37109375 419.62890625 C182.24440178 421.91534973 180.20427439 424.24237084 178.1875 426.625 C175.42465377 429.79643617 172.48923515 432.56871216 169.27734375 435.28125 C167.4317939 436.84171491 165.61957625 438.42303222 163.81640625 440.03125 C146.46116897 455.39519156 126.79833898 467.44000387 105.875 477.3125 C105.24013672 477.61397949 104.60527344 477.91545898 103.95117188 478.22607422 C43.55646022 506.6115887 -26.64901097 507.00694046 -88.9375 484.609375 C-108.39199324 477.33105514 -127.36755275 467.62481387 -144.125 455.3125 C-144.66979004 454.91498535 -145.21458008 454.5174707 -145.77587891 454.10791016 C-149.63548571 451.26946005 -153.40290113 448.32860653 -157.125 445.3125 C-157.67478516 444.86712891 -158.22457031 444.42175781 -158.79101562 443.96289062 C-172.48266886 432.76637143 -185.38943914 420.39816496 -196.125 406.3125 C-197.08844219 405.07804735 -198.05199134 403.84367819 -199.015625 402.609375 C-205.76356646 393.88170973 -211.78632793 384.96473385 -217.125 375.3125 C-217.59437988 374.46800293 -218.06375977 373.62350586 -218.54736328 372.75341797 C-250.30257633 315.11224534 -258.31522343 249.08263132 -242.125 185.3125 C-241.91536621 184.48121582 -241.70573242 183.64993164 -241.48974609 182.79345703 C-234.53195065 155.96389785 -222.29500451 129.83384896 -206.125 107.3125 C-205.43019531 106.34441406 -204.73539063 105.37632813 -204.01953125 104.37890625 C-192.6959062 88.96675109 -179.95745684 73.46609106 -165.125 61.3125 C-164.28195313 60.58160156 -163.43890625 59.85070312 -162.5703125 59.09765625 C-137.2633832 37.39130632 -107.84503302 21.42421305 -76.125 11.3125 C-75.043396 10.95913574 -75.043396 10.95913574 -73.93994141 10.59863281 C-65.60529539 7.89185178 -57.22770013 5.79641323 -48.625 4.125 C-47.4349939 3.8926062 -47.4349939 3.8926062 -46.22094727 3.65551758 C-30.80306011 0.82126773 -15.64945849 -0.06424484 0 0 Z " fill="#E65100" transform="translate(256.125,6.6875)"/>
<path d="M0 0 C45.7875 -0.12375 45.7875 -0.12375 92.5 -0.25 C102.13767578 -0.28641602 111.77535156 -0.32283203 121.70507812 -0.36035156 C133.47558594 -0.37841797 133.47558594 -0.37841797 138.98620605 -0.3817749 C142.8342817 -0.38550092 146.68213652 -0.40048828 150.53015137 -0.42230225 C155.44144369 -0.44977425 160.35241571 -0.45795812 165.26377773 -0.4522891 C167.06441255 -0.45347422 168.86505877 -0.46138533 170.66562748 -0.47686052 C173.10304832 -0.49683288 175.53923382 -0.49193437 177.97668457 -0.48101807 C178.67689476 -0.49266872 179.37710495 -0.50431938 180.09853363 -0.51632309 C185.47993401 -0.45178709 189.71265136 0.79410976 194 4 C198.95046276 9.31163984 199.72029328 14.55226568 199.60127258 21.57983398 C199.60768077 22.98053666 199.60768077 22.98053666 199.61421841 24.40953636 C199.62242002 27.52221829 199.59500972 30.63353707 199.56762695 33.74609375 C199.56621588 35.9836982 199.56700963 38.22130497 199.56983948 40.45890808 C199.57127268 46.52249411 199.54189762 52.58558452 199.50696969 58.64905548 C199.47569069 64.98980693 199.47277421 71.33057002 199.46684265 77.67138672 C199.45307316 88.31048148 199.42185281 98.94938075 199.37719727 109.58837891 C199.33126167 120.54377351 199.29594679 131.4991185 199.2746582 142.45458984 C199.27331822 143.13741905 199.27197823 143.82024826 199.27059764 144.52376926 C199.2590325 150.46393794 199.24826893 156.40410801 199.23758411 162.34427834 C199.19058438 187.8963563 199.09096852 213.44795315 199 239 C133.33 239 67.66 239 0 239 C0 160.13 0 81.26 0 0 Z " fill="#FEFDFC" transform="translate(181,102)"/>
<path d="M0 0 C1.14252731 -0.00708481 2.28505463 -0.01416962 3.46220398 -0.02146912 C4.70650177 -0.0189917 5.95079956 -0.01651428 7.23280334 -0.01396179 C8.55038132 -0.01907272 9.86795929 -0.02418365 11.22546387 -0.02944946 C14.83292192 -0.04282154 18.44027509 -0.04342016 22.0477531 -0.04088616 C25.06215015 -0.03981527 28.07652608 -0.04470282 31.0909186 -0.04949158 C38.20365932 -0.06058049 45.31634723 -0.0610276 52.42909241 -0.05497742 C59.76080877 -0.04893677 67.09233326 -0.06125226 74.42401689 -0.08254749 C80.7248087 -0.10017385 87.02553949 -0.10616323 93.32635504 -0.10290974 C97.08689535 -0.10109845 100.84729877 -0.10371767 104.6078167 -0.11762428 C108.80194904 -0.13255461 112.99569175 -0.12322348 117.18983459 -0.11161804 C118.43210815 -0.11926178 119.67438171 -0.12690552 120.95429993 -0.13478088 C131.54190124 -0.0699405 131.54190124 -0.0699405 136.27601624 3.26069641 C140.39430229 7.82420258 141.40047697 10.27857883 141.43714905 16.35932922 C141.44675659 17.64116089 141.45636414 18.92299255 141.46626282 20.2436676 C141.47111159 21.65038373 141.47539022 23.05710193 141.47914124 24.46382141 C141.48489385 25.90390525 141.49065157 27.34398907 141.49641418 28.78407288 C141.50692684 31.80704607 141.51276723 34.82999266 141.51625061 37.85298157 C141.52172487 41.71770592 141.54572847 45.58207608 141.57422256 49.44668961 C141.59289487 52.42362984 141.59805705 55.40048572 141.59958649 58.37747955 C141.60260504 59.80157652 141.61060663 61.22567229 141.62377167 62.64971161 C141.64092036 64.64789808 141.63709441 66.64623079 141.63246155 68.64448547 C141.63792999 70.34752838 141.63792999 70.34752838 141.64350891 72.0849762 C141.07548894 76.99357061 139.38692728 80.23310369 135.77601624 83.57319641 C132.00706353 86.11723949 129.19568862 86.38888324 124.75457764 86.40786743 C123.03228943 86.41860039 123.03228943 86.41860039 121.27520752 86.42955017 C120.01436844 86.43223907 118.75352936 86.43492798 117.45448303 86.43769836 C116.11403732 86.44396444 114.77359333 86.45061137 113.43315125 86.45761108 C109.03052476 86.47863519 104.62789799 86.48901129 100.22523499 86.49897766 C98.70885004 86.50302571 97.19246528 86.50714264 95.6760807 86.51132774 C88.55230821 86.53037508 81.42854606 86.54460757 74.30475301 86.55293971 C66.08433799 86.56271358 57.86419213 86.58903868 49.64387196 86.62944061 C43.28792934 86.6596064 36.93206387 86.67440898 30.57605106 86.67772073 C26.78075992 86.68007053 22.9857565 86.68902161 19.19054222 86.7141819 C15.61914794 86.73747635 12.04823052 86.74169071 8.47677994 86.73142052 C6.54561529 86.73068977 4.61447479 86.74977101 2.68341064 86.76948547 C-3.72645268 86.73100464 -7.90272052 86.68545356 -12.72398376 82.26069641 C-16.43635171 78.03627771 -16.85625717 74.48588548 -16.932724 68.97261047 C-16.95201462 67.67406128 -16.97130524 66.37551208 -16.99118042 65.03761292 C-17.00598854 63.61719258 -17.01976182 62.19676112 -17.03257751 60.77632141 C-17.03914934 60.05966057 -17.04572117 59.34299973 -17.05249214 58.60462189 C-17.08506004 54.80998711 -17.1095154 51.01538009 -17.12901306 47.22065735 C-17.14681181 44.08742724 -17.1816098 40.95509963 -17.23155212 37.82221985 C-17.29189432 34.03203198 -17.32250716 30.24267931 -17.33218575 26.452034 C-17.34071876 25.0119377 -17.35948414 23.57186245 -17.38892937 22.13204193 C-17.63374712 9.47810745 -17.63374712 9.47810745 -13.99766541 4.94721985 C-10.00591041 0.97384276 -5.49405011 0.01138664 0 0 Z " fill="#FEFBFA" transform="translate(219.72398376464844,236.7393035888672)"/>
<path d="M0 0 C0.91575873 -0.00170885 1.83151745 -0.0034177 2.77502644 -0.00517833 C5.83822633 -0.00846802 8.90120633 0.00252196 11.96438599 0.01345825 C14.16228734 0.01402248 16.36018907 0.01370558 18.55809021 0.01257324 C24.52245374 0.01199918 30.48673691 0.02376231 36.45108175 0.03772116 C42.6850961 0.05021945 48.91911227 0.05139831 55.15313721 0.05377197 C65.6157874 0.05928288 76.07841009 0.07177728 86.54104614 0.08963013 C97.31610975 0.10799693 108.09116535 0.12214951 118.86624146 0.13064575 C119.53076513 0.1311712 120.1952888 0.13169665 120.87994955 0.13223802 C124.21377359 0.13484815 127.54759768 0.13737104 130.8814218 0.13986182 C158.52514594 0.16076973 186.16883459 0.19635345 213.81253052 0.24050903 C213.81253052 8.82050903 213.81253052 17.40050903 213.81253052 26.24050903 C211.12343536 26.24859589 208.43434021 26.25668274 205.66375732 26.26501465 C180.38199471 26.34198897 155.10028733 26.42991859 129.81859779 26.52803612 C116.8195171 26.5782197 103.8204429 26.62466184 90.82131958 26.66238403 C79.4951093 26.69526099 68.16894856 26.73506817 56.84279287 26.78329909 C50.84223532 26.80860693 44.8417108 26.83037544 38.84111404 26.843853 C33.1990364 26.8566346 27.55707182 26.8786464 21.91505623 26.90789223 C19.83893489 26.91699866 17.76279533 26.92266532 15.68665504 26.92472267 C12.86273024 26.92802366 10.03913026 26.9434418 7.215271 26.96203613 C5.9691787 26.95913403 5.9691787 26.95913403 4.69791281 26.9561733 C0.28564417 26.82171902 0.28564417 26.82171902 -3.18746948 29.24050903 C-2.8976368 32.54734369 -2.8976368 32.54734369 -1.18746948 35.24050903 C1.58118918 35.3508051 4.32543746 35.39547788 7.09501648 35.39872742 C8.41324375 35.40613438 8.41324375 35.40613438 9.75810188 35.41369098 C12.72619392 35.42914585 15.6942642 35.4374481 18.66238403 35.4458313 C20.78073318 35.45540356 22.89908038 35.46541324 25.01742554 35.47583008 C30.78783111 35.50295593 36.55824494 35.52392377 42.32867932 35.54383206 C48.35187118 35.56564442 54.37503741 35.59305626 60.39820862 35.61988831 C71.81272758 35.66987965 83.22726072 35.71479449 94.6418075 35.75791067 C107.63313611 35.80722812 120.62443902 35.86216655 133.6157428 35.91759026 C160.34798159 36.03150915 187.08024528 36.13812711 213.81253052 36.24050903 C213.81253052 44.82050903 213.81253052 53.40050903 213.81253052 62.24050903 C184.89240511 62.3331198 155.97231544 62.40449518 127.05207157 62.44775772 C124.37839304 62.45183707 121.70471466 62.45600235 119.03103638 62.4602356 C118.03421693 62.46180946 118.03421693 62.46180946 117.01725971 62.46341512 C106.26622748 62.48080598 95.51528107 62.51233635 84.7642997 62.54912022 C73.72742944 62.58656645 62.69060648 62.60845337 51.65367597 62.61686301 C45.45662899 62.62207586 39.25977646 62.63432045 33.06279182 62.66342926 C27.22779609 62.69061519 21.3930746 62.69894746 15.55802155 62.69293976 C13.41869808 62.69403856 11.27936528 62.70197328 9.14009666 62.71733093 C6.21331802 62.73730826 3.28756727 62.73241972 0.36076355 62.7215271 C-0.48070235 62.73317847 -1.32216824 62.74482983 -2.18913311 62.75683427 C-11.28513715 62.66567934 -19.74298078 58.65792005 -26.18746948 52.24050903 C-31.11719004 45.27459955 -33.39784419 40.12595033 -33.49996948 31.61550903 C-33.52897339 30.8330481 -33.55797729 30.05058716 -33.58786011 29.24441528 C-33.677179 20.95837043 -30.37523671 14.90841824 -24.89059448 8.84207153 C-17.60920489 1.99489325 -9.75682864 -0.06685473 0 0 Z " fill="#FEFDFD" transform="translate(166.18746948242188,349.7594909667969)"/>
<path d="M0 0 C0 78.87 0 157.74 0 239 C-5.94 239.33 -11.88 239.66 -18 240 C-24.9289107 242.02417616 -29.56903254 244.82507605 -35.08984375 249.4140625 C-37 251 -37 251 -40 253 C-40.09128124 222.68901729 -40.16205462 192.37804881 -40.20426132 162.06696004 C-40.20926405 158.48718537 -40.21444135 154.90741098 -40.21972656 151.32763672 C-40.2207758 150.61497827 -40.22182505 149.90231982 -40.22290608 149.16806567 C-40.24030387 137.63391132 -40.27183809 126.09983685 -40.30861118 114.56572986 C-40.34603807 102.7276863 -40.36823954 90.88968453 -40.37635398 79.05158424 C-40.38134646 72.40354359 -40.39383593 65.75565146 -40.42292023 59.10766602 C-40.45007514 52.84997872 -40.45844468 46.59254706 -40.45243073 40.33480644 C-40.45353091 38.03864592 -40.46148407 35.74247682 -40.4768219 33.44636726 C-40.49675038 30.309065 -40.4919281 27.17272536 -40.48101807 24.03540039 C-40.49266943 23.12876648 -40.5043208 22.22213257 -40.51632524 21.2880249 C-40.4553152 14.78836308 -39.1319378 9.2226628 -34.48185945 4.43788242 C-23.6517813 -4.83206285 -19.98429214 0 0 0 Z " fill="#FEFCFA" transform="translate(172,102)"/>
<path d="M0 0 C3.76959937 3.06603957 7.30040663 6.35742654 9 11 C8.66811281 14.42046999 7.01934392 16.67686689 5.0625 19.4375 C1.59014823 24.34315668 -0.28737102 28.22358676 -0.125 34.3125 C-0.10695313 35.19550781 -0.08890625 36.07851562 -0.0703125 36.98828125 C-0.04710937 37.65214844 -0.02390625 38.31601563 0 39 C1.99954746 39.04254356 4.00041636 39.04080783 6 39 C7.56381917 37.43618083 7.38067233 35.59849058 7.6875 33.4375 C8.74110921 27.91595397 10.97458822 23.92911006 15 20 C20.02645087 16.68167204 26.24537925 17.33997181 32 18 C37.03378454 19.77012204 40.99331094 22.96804445 43.37109375 27.8515625 C44.96674703 33.30255197 45.04243807 39.03601709 43.15234375 44.41015625 C40.28784621 49.60509246 36.54876375 52.13073562 31 54 C28.00455169 54.8093292 25.0547281 55.42723848 22 56 C21.67 61.61 21.34 67.22 21 73 C-1.11 73 -23.22 73 -46 73 C-46.33 67.72 -46.66 62.44 -47 57 C-49.31 56.34 -51.62 55.68 -54 55 C-60.04907782 52.75684461 -64.51236248 49.50298515 -68 44 C-69.75719379 38.69646966 -69.69257136 33.07771407 -67.9375 27.8125 C-65.10969048 23.70761521 -61.48984989 20.24492495 -57 18 C-51.16755803 17.5085926 -45.82127447 17.16924322 -40.4375 19.625 C-34.5807963 25.33153181 -32.82564022 31.22719844 -31 39 C-29.02 39 -27.04 39 -25 39 C-24.2963309 30.7748901 -25.40420672 24.93263733 -30 18 C-30.78375 17.236875 -31.5675 16.47375 -32.375 15.6875 C-32.91125 15.130625 -33.4475 14.57375 -34 14 C-33.46826725 8.17994341 -30.28508862 4.71840118 -26 1 C-17.63930881 -3.87254568 -8.60426177 -4.91181411 0 0 Z " fill="#FEFDFC" transform="translate(293,131)"/>
<path d="M0 0 C1.14252731 -0.00708481 2.28505463 -0.01416962 3.46220398 -0.02146912 C4.70650177 -0.0189917 5.95079956 -0.01651428 7.23280334 -0.01396179 C8.55038132 -0.01907272 9.86795929 -0.02418365 11.22546387 -0.02944946 C14.83292192 -0.04282154 18.44027509 -0.04342016 22.0477531 -0.04088616 C25.06215015 -0.03981527 28.07652608 -0.04470282 31.0909186 -0.04949158 C38.20365932 -0.06058049 45.31634723 -0.0610276 52.42909241 -0.05497742 C59.76080877 -0.04893677 67.09233326 -0.06125226 74.42401689 -0.08254749 C80.7248087 -0.10017385 87.02553949 -0.10616323 93.32635504 -0.10290974 C97.08689535 -0.10109845 100.84729877 -0.10371767 104.6078167 -0.11762428 C108.80194904 -0.13255461 112.99569175 -0.12322348 117.18983459 -0.11161804 C118.43210815 -0.11926178 119.67438171 -0.12690552 120.95429993 -0.13478088 C131.54190124 -0.0699405 131.54190124 -0.0699405 136.27601624 3.26069641 C140.39430229 7.82420258 141.40047697 10.27857883 141.43714905 16.35932922 C141.44675659 17.64116089 141.45636414 18.92299255 141.46626282 20.2436676 C141.47111159 21.65038373 141.47539022 23.05710193 141.47914124 24.46382141 C141.48489385 25.90390525 141.49065157 27.34398907 141.49641418 28.78407288 C141.50692684 31.80704607 141.51276723 34.82999266 141.51625061 37.85298157 C141.52172487 41.71770592 141.54572847 45.58207608 141.57422256 49.44668961 C141.59289487 52.42362984 141.59805705 55.40048572 141.59958649 58.37747955 C141.60260504 59.80157652 141.61060663 61.22567229 141.62377167 62.64971161 C141.64092036 64.64789808 141.63709441 66.64623079 141.63246155 68.64448547 C141.63792999 70.34752838 141.63792999 70.34752838 141.64350891 72.0849762 C141.07548894 76.99357061 139.38692728 80.23310369 135.77601624 83.57319641 C132.00706353 86.11723949 129.19568862 86.38888324 124.75457764 86.40786743 C123.03228943 86.41860039 123.03228943 86.41860039 121.27520752 86.42955017 C120.01436844 86.43223907 118.75352936 86.43492798 117.45448303 86.43769836 C116.11403732 86.44396444 114.77359333 86.45061137 113.43315125 86.45761108 C109.03052476 86.47863519 104.62789799 86.48901129 100.22523499 86.49897766 C98.70885004 86.50302571 97.19246528 86.50714264 95.6760807 86.51132774 C88.55230821 86.53037508 81.42854606 86.54460757 74.30475301 86.55293971 C66.08433799 86.56271358 57.86419213 86.58903868 49.64387196 86.62944061 C43.28792934 86.6596064 36.93206387 86.67440898 30.57605106 86.67772073 C26.78075992 86.68007053 22.9857565 86.68902161 19.19054222 86.7141819 C15.61914794 86.73747635 12.04823052 86.74169071 8.47677994 86.73142052 C6.54561529 86.73068977 4.61447479 86.74977101 2.68341064 86.76948547 C-3.72645268 86.73100464 -7.90272052 86.68545356 -12.72398376 82.26069641 C-16.43635171 78.03627771 -16.85625717 74.48588548 -16.932724 68.97261047 C-16.95201462 67.67406128 -16.97130524 66.37551208 -16.99118042 65.03761292 C-17.00598854 63.61719258 -17.01976182 62.19676112 -17.03257751 60.77632141 C-17.03914934 60.05966057 -17.04572117 59.34299973 -17.05249214 58.60462189 C-17.08506004 54.80998711 -17.1095154 51.01538009 -17.12901306 47.22065735 C-17.14681181 44.08742724 -17.1816098 40.95509963 -17.23155212 37.82221985 C-17.29189432 34.03203198 -17.32250716 30.24267931 -17.33218575 26.452034 C-17.34071876 25.0119377 -17.35948414 23.57186245 -17.38892937 22.13204193 C-17.63374712 9.47810745 -17.63374712 9.47810745 -13.99766541 4.94721985 C-10.00591041 0.97384276 -5.49405011 0.01138664 0 0 Z M-6.53940773 10.61890316 C-8.32294626 13.09084369 -8.10539903 15.117519 -8.11216736 18.1374054 C-8.12162384 19.34553391 -8.13108032 20.55366241 -8.14082336 21.79840088 C-8.13475067 23.10466934 -8.12867798 24.41093781 -8.12242126 25.75679016 C-8.12444249 27.11055661 -8.12735434 28.46432199 -8.13111877 29.81808472 C-8.13554141 32.65526191 -8.12911442 35.49215569 -8.11509705 38.32929993 C-8.09802104 41.96222011 -8.10783591 45.59447461 -8.12581444 49.22737026 C-8.13666814 52.02326448 -8.13319848 54.81900157 -8.12543106 57.61490059 C-8.12246181 59.60461993 -8.13155912 61.59434542 -8.14082336 63.58404541 C-8.13136688 64.79532608 -8.1219104 66.00660675 -8.11216736 67.2545929 C-8.10978058 68.32032028 -8.1073938 69.38604767 -8.10493469 70.48406982 C-7.65937063 73.73164041 -6.99947944 74.92798654 -4.72398376 77.26069641 C-2.2221749 77.86287984 -2.2221749 77.86287984 0.65905762 77.76863098 C2.33519638 77.78554993 2.33519638 77.78554993 4.04519653 77.80281067 C5.27177475 77.79471375 6.49835297 77.78661682 7.76210022 77.77827454 C9.69895691 77.78878845 9.69895691 77.78878845 11.67494202 77.79951477 C15.21846069 77.8177687 18.76151414 77.810672 22.30504107 77.79799843 C26.01209957 77.78787913 29.71911794 77.79726131 33.42617798 77.80354309 C39.65297097 77.81082357 45.8795743 77.8012224 52.1063385 77.78218079 C59.30521212 77.76042064 66.50363245 77.76745525 73.70249504 77.78948641 C79.88179956 77.80764055 86.06096764 77.81019843 92.24029022 77.79973173 C95.93151373 77.79349558 99.62252423 77.7926641 103.31373405 77.80587769 C107.42960809 77.8195817 111.54470147 77.80058641 115.66053772 77.77827454 C117.4973687 77.79041992 117.4973687 77.79041992 119.37130737 77.80281067 C120.49155304 77.79153137 121.61179871 77.78025208 122.76599121 77.76863098 C124.22579737 77.76636883 124.22579737 77.76636883 125.71509457 77.76406097 C129.0214277 77.1141813 130.21568948 75.87653988 132.27601624 73.26069641 C132.8727613 70.42463397 132.8727613 70.42463397 132.77772522 67.2545929 C132.78710617 66.04331223 132.79648712 64.83203156 132.80615234 63.58404541 C132.79491837 62.27980118 132.78368439 60.97555695 132.77210999 59.63179016 C132.772265 58.27705813 132.77375447 56.92232565 132.77651978 55.56759644 C132.77790275 52.73210481 132.76536231 49.89711965 132.74256897 47.0617218 C132.71415657 43.42758182 132.71692991 39.79428139 132.72965908 36.160079 C132.73661355 33.3642052 132.72883027 30.56852549 132.71640205 27.77267647 C132.70969244 25.78126245 132.71403045 23.78982117 132.71850586 21.79840088 C132.6994796 19.98620811 132.6994796 19.98620811 132.68006897 18.1374054 C132.67196449 16.54000771 132.67196449 16.54000771 132.66369629 14.91033936 C132.20835973 11.79829042 131.75628324 11.11673447 129.27601624 9.26069641 C126.7463111 8.80826154 126.7463111 8.80826154 123.84828186 8.87974548 C122.7209967 8.87128601 121.59371155 8.86282654 120.43226624 8.85411072 C119.19476624 8.86018341 117.95726624 8.8662561 116.68226624 8.87251282 C115.37966858 8.86725586 114.07707092 8.8619989 112.73500061 8.85658264 C109.16062571 8.8428929 105.58651024 8.84821437 102.01213074 8.8577199 C98.27391351 8.86530798 94.5357187 8.85827326 90.79750061 8.8535614 C84.51946519 8.84810135 78.24153559 8.85530195 71.96351624 8.86958313 C64.70220713 8.88591019 57.4411507 8.88062186 50.17984772 8.86410391 C43.94877202 8.8504961 37.71777246 8.84856591 31.48668671 8.85641992 C27.76367042 8.86110035 24.04077296 8.86171124 20.31776428 8.85181046 C16.16827901 8.8415466 12.01923032 8.85576662 7.86976624 8.87251282 C6.01351624 8.86340378 6.01351624 8.86340378 4.11976624 8.85411072 C2.4288385 8.86679993 2.4288385 8.86679993 0.70375061 8.87974548 C-0.27774963 8.88087656 -1.25924988 8.88200764 -2.27049255 8.88317299 C-4.76618935 9.07032088 -4.76618935 9.07032088 -6.53940773 10.61890316 Z " fill="#E65100" transform="translate(219.72398376464844,236.7393035888672)"/>
<path d="M0 0 C7.02658584 4.17203534 12.6867305 9.97701136 16.25 17.3359375 C16.98863281 17.28953125 17.72726562 17.243125 18.48828125 17.1953125 C27.74279697 16.866054 35.78035813 18.27000363 43.1875 24.1484375 C49.19205092 29.83620156 51.32981947 36.18753943 51.59350586 44.3269043 C51.76702944 56.77352188 51.76702944 56.77352188 47.8046875 61.765625 C43.37648396 66.2383331 39.18736368 69.96099203 33.25 72.3359375 C31.93 72.3359375 30.61 72.3359375 29.25 72.3359375 C29.30220703 73.99882812 29.30220703 73.99882812 29.35546875 75.6953125 C29.38361349 77.15883898 29.41091292 78.62238189 29.4375 80.0859375 C29.46263672 80.81554687 29.48777344 81.54515625 29.51367188 82.296875 C29.55481963 85.31437695 29.50615147 87.79170199 28.20898438 90.54774475 C25.29532257 93.20738256 22.36240666 92.8871256 18.61328125 92.83764648 C17.8373764 92.84304947 17.06147156 92.84845245 16.26205444 92.85401917 C13.69514925 92.86653509 11.12935944 92.84999727 8.5625 92.83203125 C6.78035422 92.83218617 4.99820809 92.83367403 3.21606445 92.83644104 C-0.51984543 92.83782631 -4.25537199 92.82524575 -7.99121094 92.80249023 C-12.78331331 92.7741051 -17.57477859 92.77684115 -22.3669281 92.78958035 C-26.04721532 92.79653073 -29.72735492 92.7887556 -33.40762329 92.77632332 C-35.17468703 92.77180257 -36.94176659 92.77147744 -38.70883179 92.77538872 C-41.17731281 92.77829471 -43.64491162 92.76182415 -46.11328125 92.73999023 C-46.84584137 92.74449188 -47.57840149 92.74899353 -48.3331604 92.75363159 C-53.27015048 92.68096469 -53.27015048 92.68096469 -55.70600891 90.92950439 C-57.02321563 88.91889621 -57.09693932 87.71691417 -57.04296875 85.32421875 C-57.03330078 84.56689453 -57.02363281 83.80957031 -57.01367188 83.02929688 C-56.98853516 82.24361328 -56.96339844 81.45792969 -56.9375 80.6484375 C-56.92396484 79.85115234 -56.91042969 79.05386719 -56.89648438 78.23242188 C-56.86117089 76.26663783 -56.80736447 74.30120168 -56.75 72.3359375 C-58.11125 72.13871094 -58.11125 72.13871094 -59.5 71.9375 C-66.36100716 70.66755396 -71.00635491 67.65633357 -75.42578125 62.3125 C-78.92358414 57.09159068 -80.27998462 52.79225368 -80.1875 46.5234375 C-80.18137695 45.81856201 -80.17525391 45.11368652 -80.16894531 44.38745117 C-79.99512484 38.5771676 -78.86050071 34.20833023 -75.75 29.3359375 C-75.21375 28.4490625 -74.6775 27.5621875 -74.125 26.6484375 C-67.32290298 20.02534303 -60.25650381 17.14218499 -50.9453125 17.234375 C-48.47000863 17.34889084 -46.14919763 17.71678972 -43.75 18.3359375 C-43.50121094 17.45035156 -43.25242188 16.56476563 -42.99609375 15.65234375 C-40.27133103 8.40054579 -34.38188137 2.75177013 -27.5625 -0.7890625 C-18.61742642 -4.30946261 -8.71816092 -4.04362069 0 0 Z M-33.47265625 16.23828125 C-34.96870104 18.69508875 -35.58085663 20.46050021 -35.75 23.3359375 C-34.68744961 25.18979681 -34.68744961 25.18979681 -33 26.7109375 C-27.40963838 32.7693294 -26.41692341 38.12279917 -26.64453125 46.17578125 C-26.67933594 46.88863281 -26.71414063 47.60148437 -26.75 48.3359375 C-28.73 48.3359375 -30.71 48.3359375 -32.75 48.3359375 C-33.09611328 47.03269531 -33.09611328 47.03269531 -33.44921875 45.703125 C-36.20829849 35.47596246 -36.20829849 35.47596246 -43.5078125 28.21484375 C-48.31752839 26.32950216 -53.68803815 26.83100365 -58.75 27.3359375 C-63.67265695 29.6214568 -66.56049249 33.05288456 -69.75 37.3359375 C-71.53201348 42.68197794 -71.23900988 47.63878558 -69.6875 53.0234375 C-64.70938419 61.53440969 -57.90684985 63.71969469 -48.75 66.3359375 C-48.255 74.2559375 -48.255 74.2559375 -47.75 82.3359375 C-25.64 82.3359375 -3.53 82.3359375 19.25 82.3359375 C19.58 76.7259375 19.91 71.1159375 20.25 65.3359375 C22.085625 64.9440625 23.92125 64.5521875 25.8125 64.1484375 C32.56114391 62.44535991 36.89062397 60.45640257 41.1875 54.7734375 C43.05534469 48.73041057 43.63656049 42.59506938 41.11328125 36.6640625 C38.2646588 32.0883225 35.58374741 28.79059588 30.25 27.3359375 C24.33924521 26.74712668 19.15637939 26.46636094 13.6875 28.9609375 C8.54023255 33.97622373 6.75892997 38.29412304 5.64453125 45.26171875 C5.25 47.3359375 5.25 47.3359375 4.25 48.3359375 C2.25041636 48.37674533 0.24954746 48.37848106 -1.75 48.3359375 C-2.77667025 39.74232726 -0.29081046 33.59460532 4.25 26.3359375 C4.83136719 25.82933594 5.41273438 25.32273438 6.01171875 24.80078125 C7.52606614 23.34572745 7.52606614 23.34572745 7.140625 20.90625 C5.30528285 15.60951696 1.03726592 11.62443153 -3.4375 8.3984375 C-14.67125834 3.23698097 -25.78776331 7.14298443 -33.47265625 16.23828125 Z " fill="#E65708" transform="translate(294.75,121.6640625)"/>
<path d="M0 0 C1.35670303 0.00371613 1.35670303 0.00371613 2.74081421 0.00750732 C3.6921373 0.00239639 4.64346039 -0.00271454 5.62361145 -0.00798035 C8.78001125 -0.02192283 11.93619385 -0.02091607 15.09262085 -0.01861572 C17.27976056 -0.02250012 19.46689951 -0.02683425 21.65403748 -0.03160095 C26.24320926 -0.03907321 30.83230412 -0.03876462 35.42147827 -0.0335083 C41.31099675 -0.02771263 47.20020085 -0.04464232 53.08966732 -0.06785297 C57.60802562 -0.08256397 62.12630775 -0.0834656 66.64468575 -0.08034325 C68.81646917 -0.08085779 70.98825671 -0.08612042 73.16001701 -0.09615517 C76.19366935 -0.10845106 79.22670349 -0.101769 82.26034546 -0.09014893 C83.16278992 -0.09779266 84.06523437 -0.1054364 84.99502563 -0.11331177 C86.23375679 -0.1027903 86.23375679 -0.1027903 87.49751282 -0.09205627 C88.2148355 -0.09222402 88.93215818 -0.09239176 89.67121792 -0.09256458 C92.14475688 0.3968127 93.06227453 1.28866964 94.5652771 3.28216553 C94.32074586 6.62409245 93.95984153 7.8876011 91.5652771 10.28216553 C88.47750233 10.48643262 85.47905018 10.56528561 82.38973999 10.55682373 C80.96275536 10.56449013 80.96275536 10.56449013 79.50694275 10.5723114 C76.35054295 10.58625388 73.19436035 10.58524713 70.03793335 10.58294678 C67.85079364 10.58683117 65.66365469 10.5911653 63.47651672 10.59593201 C58.88734494 10.60340426 54.29825008 10.60309568 49.70907593 10.59783936 C43.81955745 10.59204369 37.93035335 10.60897338 32.04088688 10.63218403 C27.52252858 10.64689502 23.00424645 10.64779666 18.48586845 10.6446743 C16.31408503 10.64518885 14.14229749 10.65045147 11.97053719 10.66048622 C8.93688485 10.67278212 5.90385071 10.66610006 2.87020874 10.65447998 C1.96776428 10.66212372 1.06531982 10.66976746 0.13552856 10.67764282 C-1.10320259 10.66712135 -1.10320259 10.66712135 -2.36695862 10.65638733 C-3.0842813 10.65655507 -3.80160398 10.65672281 -4.54066372 10.65689564 C-7.01420268 10.16751836 -7.93172033 9.27566141 -9.4347229 7.28216553 C-8.94796654 0.6298286 -6.23507477 0.05367468 0 0 Z " fill="#E75B0F" transform="translate(239.43472290039063,287.71783447265625)"/>
<path d="M0 0 C0.95132309 -0.0049649 1.90264618 -0.00992981 2.88279724 -0.01504517 C6.03914098 -0.0296861 9.19543449 -0.03647145 12.35180664 -0.04199219 C14.53894554 -0.04774135 16.72608441 -0.05349911 18.91322327 -0.05926514 C23.5023726 -0.06978015 28.09150438 -0.07561977 32.68066406 -0.07910156 C38.57016138 -0.08459218 44.45942819 -0.10863031 50.34885311 -0.13707352 C54.86719956 -0.15566596 59.38549006 -0.16090365 63.90387154 -0.16243744 C66.07566147 -0.16547138 68.24745025 -0.17352468 70.4192028 -0.18662262 C73.45282595 -0.20361474 76.48588027 -0.20181976 79.51953125 -0.1953125 C80.42197571 -0.20452728 81.32442017 -0.21374207 82.25421143 -0.22323608 C83.0800322 -0.21766693 83.90585297 -0.21209778 84.75669861 -0.20635986 C85.47402129 -0.20782642 86.19134398 -0.20929298 86.93040371 -0.21080399 C89.40713021 0.27555132 90.32521134 1.16102423 91.82446289 3.16113281 C91.40341026 7.58218544 91.40341026 7.58218544 89.82446289 9.16113281 C86.73012051 9.26713683 83.65797458 9.30790736 80.56298828 9.30639648 C79.10455254 9.3114344 79.10455254 9.3114344 77.61665344 9.3165741 C74.38512921 9.32611544 71.15365661 9.32802879 67.92211914 9.32910156 C65.68631468 9.33231188 63.45051043 9.33567577 61.21470642 9.33918762 C56.5212251 9.34518683 51.82776223 9.34702671 47.13427734 9.34643555 C41.10682181 9.34633387 35.07948393 9.35998857 29.05205631 9.37720776 C24.43252515 9.38830164 19.81302266 9.39035556 15.19347954 9.38982582 C12.97063224 9.39100979 10.74778429 9.39545474 8.52495003 9.40315819 C5.42165912 9.41290573 2.31862669 9.41010085 -0.78466797 9.40405273 C-2.17413635 9.41248199 -2.17413635 9.41248199 -3.5916748 9.42108154 C-4.43439438 9.41688705 -5.27711395 9.41269257 -6.14537048 9.40837097 C-6.87966247 9.40891574 -7.61395445 9.40946051 -8.3704977 9.41002178 C-10.17553711 9.16113281 -10.17553711 9.16113281 -12.17553711 7.16113281 C-11.92553711 4.09863281 -11.92553711 4.09863281 -11.17553711 1.16113281 C-7.73838213 -0.55744468 -3.78317947 0.00467574 0 0 Z " fill="#E65201" transform="translate(242.175537109375,261.8388671875)"/>
</svg>
